<?xml version="1.0" encoding="utf-8" ?>
<svg baseProfile="full" height="200" version="1.1" width="228" xmlns="http://www.w3.org/2000/svg" xmlns:ev="http://www.w3.org/2001/xml-events" xmlns:xlink="http://www.w3.org/1999/xlink"><defs><marker id="arrow" markerHeight="3.5" markerWidth="5" orient="auto" refX="5.0" refY="1.7"><polygon points="0,0 5,1.75 0,3.5" /></marker></defs><g style="fill:white;" /><g style="fill: rgb(0.0 0.0 0.0);stroke: rgb(0.0 0.0 0.0); stroke-width: 0.1;fill-opacity: 1.0;" transform="matrix(135.50090889083253, 0.0, 0.0, 135.50090889083253, 5.420036355633314, 80.06232268088752)"><path d="M 0.0 0.0 &#10;                A 0.5 0.5 -90.0 0 1&#10;                  1.0 0.0 &#10;                A 0.7249999999999999 0.7249999999999999 -90.0 0 0&#10;                  -1.1102230246251565e-16 0.0 Z" style="vector-effect: non-scaling-stroke;" /></g><g style="fill: rgb(0.0 0.0 0.0);stroke: rgb(0.0 0.0 0.0); stroke-width: 0.1;fill-opacity: 1.0;" transform="matrix(135.50090889083253, 0.0, 0.0, 135.50090889083253, 208.6713996918821, 181.68800434901192)"><path d="M 0.0 0.0 L -1.0 -1.0" style="vector-effect: non-scaling-stroke;fill:none;" /></g><g style="fill: rgb(256.0 256.0 256.0);stroke: rgb(0.0 0.0 0.0); stroke-width: 0.1;fill-opacity: 1.0;" transform="matrix(13.550090889083254, 0.0, 0.0, 13.550090889083254, 208.6713996918821, 168.13791345992868)"><path d="M 0.0 0.0 &#10;                A 1.0 1.0 0.0 0 1&#10;                  1.2246467991473532e-16 2.0 &#10;                A 1.0 1.0 -180.0 0 1&#10;                  2.4492935982947064e-16 0.0 Z" style="vector-effect: non-scaling-stroke;" /></g><g style="fill: rgb(0.0 0.0 0.0);stroke: rgb(256.0 256.0 256.0); stroke-width: 10.0;fill-opacity: 1.0;" transform="matrix(135.50090889083253, 0.0, 0.0, 135.50090889083253, 73.17049080104957, 46.1870954581794)"><path d="M 0.051856960447561384 0.051856960447561384 &#10;                A 16.458294822119676 16.458294822119676 135.0 0 1&#10;                  -0.20471891388307561 -0.20471891388307384" style="vector-effect: non-scaling-stroke;fill:none;" /></g><g style="fill: rgb(256.0 0.0 0.0);stroke: rgb(0.0 0.0 0.0); stroke-width: 0.1;fill-opacity: 1.0;" transform="matrix(13.550090889083254, 0.0, 0.0, 13.550090889083254, 80.19715607401008, 39.66366984205666)"><path d="M 0.0 0.0 &#10;                A 1.0 1.0 0.0 0 1&#10;                  1.2246467991473532e-16 2.0 &#10;                A 1.0 1.0 -180.0 0 1&#10;                  2.4492935982947064e-16 0.0 Z" style="vector-effect: non-scaling-stroke;" /></g><g style="fill: rgb(256.0 0.0 0.0);stroke: rgb(0.0 0.0 0.0); stroke-width: 0.1;fill-opacity: 1.0;" transform="matrix(13.550090889083254, 0.0, 0.0, 13.550090889083254, 45.29539099385818, 4.761904761904759)"><path d="M 0.0 0.0 &#10;                A 1.0 1.0 0.0 0 1&#10;                  1.2246467991473532e-16 2.0 &#10;                A 1.0 1.0 -180.0 0 1&#10;                  2.4492935982947064e-16 0.0 Z" style="vector-effect: non-scaling-stroke;" /></g></svg>